<?xml version="1.0" encoding="utf-8"?>
<!-- Generator: Adobe Illustrator 18.0.0, SVG Export Plug-In . SVG Version: 6.00 Build 0)  -->
<!DOCTYPE svg PUBLIC "-//W3C//DTD SVG 1.1//EN" "http://www.w3.org/Graphics/SVG/1.1/DTD/svg11.dtd">
<svg version="1.1" id="Capa_1" xmlns="http://www.w3.org/2000/svg" xmlns:xlink="http://www.w3.org/1999/xlink" x="0px" y="0px"
	 viewBox="0 0 512 512" enable-background="new 0 0 512 512" xml:space="preserve">
<path fill="#080707" d="M506.3,257c0.8,126.2-99,245.8-243.7,249C117.9,509.2,11.3,394.4,7.8,263C4.2,125.1,114.7,10.9,250,8
	C401.7,4.7,507.3,127.7,506.3,257z M470.7,259C470.4,115.3,347.1,39.5,249.3,43.2C129.7,47.8,42.2,149.8,43.7,260.1
	c1.7,124.6,111.1,212.3,215.6,210.5C383.9,468.4,471,361.6,470.7,259z"/>
<path fill="#090808" d="M317.2,270.2c-53.9,43.7-105.8,88.9-161,130.5c0.7-1.3,1.4-2.6,2.2-3.8c27.3-41.5,54.7-82.9,82.1-124.4
	c1.2-1.8,2.2-3.4,4.9-3.3c23.1,0.3,46.3,0.4,69.4,0.6C315.3,269.7,315.9,269.9,317.2,270.2z"/>
<path fill="#090808" d="M197.6,243.3c53.2-43.5,105.2-88.5,159.5-130.7c0.3,0.3,0.6,0.6,0.9,0.9c-8.2,12.4-16.3,24.8-24.5,37.2
	c-19.9,30.1-39.8,60.2-59.7,90.3c-1.2,1.8-2,3.6-4.8,3.6c-23.6-0.1-47.3-0.1-70.9-0.1C197.9,244.2,197.7,243.8,197.6,243.3z"/>
</svg>
