<svg width="282" height="75" xmlns="http://www.w3.org/2000/svg" xmlns:xlink="http://www.w3.org/1999/xlink" overflow="hidden"><defs><clipPath id="clip0"><rect x="358" y="242" width="282" height="75"/></clipPath></defs><g clip-path="url(#clip0)" transform="translate(-358 -242)"><path d="M244.231 151.397C244.231 148.651 244.682 146.164 245.583 143.934 246.516 141.704 247.804 139.814 249.444 138.263 251.086 136.68 253.033 135.468 255.286 134.628 257.539 133.789 260.001 133.368 262.672 133.368 265.343 133.368 267.805 133.789 270.058 134.628 272.311 135.468 274.258 136.68 275.9 138.263 277.541 139.814 278.812 141.704 279.713 143.934 280.646 146.164 281.113 148.651 281.113 151.397 281.113 154.144 280.646 156.632 279.713 158.861 278.812 161.091 277.541 162.997 275.9 164.581 274.258 166.131 272.311 167.327 270.058 168.167 267.805 169.007 265.343 169.427 262.672 169.427 260.001 169.427 257.539 169.007 255.286 168.167 253.033 167.327 251.086 166.131 249.444 164.581 247.804 162.997 246.516 161.091 245.583 158.861 244.682 156.632 244.231 154.144 244.231 151.397ZM252.052 151.397C252.052 153.013 252.293 154.499 252.776 155.857 253.291 157.182 254.015 158.345 254.948 159.346 255.881 160.316 256.992 161.075 258.279 161.624 259.599 162.173 261.063 162.448 262.672 162.448 264.282 162.448 265.73 162.173 267.017 161.624 268.336 161.075 269.463 160.316 270.396 159.346 271.329 158.345 272.037 157.182 272.52 155.857 273.035 154.499 273.292 153.013 273.292 151.397 273.292 149.815 273.035 148.344 272.52 146.987 272.037 145.63 271.329 144.467 270.396 143.497 269.463 142.496 268.336 141.72 267.017 141.172 265.73 140.622 264.282 140.347 262.672 140.347 261.063 140.347 259.599 140.622 258.279 141.172 256.992 141.72 255.881 142.496 254.948 143.497 254.015 144.467 253.291 145.63 252.776 146.987 252.293 148.344 252.052 149.815 252.052 151.397Z" fill="#FFB200" transform="matrix(1 0 0 1.00021 269.711 138.703)"/><path d="M284.591 142.778 292.198 142.778 292.198 146.279 292.303 146.279C292.55 145.783 292.902 145.288 293.36 144.794 293.818 144.299 294.364 143.856 294.998 143.467 295.632 143.079 296.354 142.76 297.164 142.513 297.974 142.265 298.854 142.141 299.806 142.141 301.813 142.141 303.434 142.46 304.666 143.097 305.899 143.698 306.849 144.546 307.518 145.642 308.223 146.739 308.698 148.029 308.945 149.514 309.192 150.999 309.315 152.608 309.315 154.34L309.315 168.554 301.39 168.554 301.39 155.932C301.39 155.189 301.355 154.429 301.285 153.651 301.249 152.838 301.091 152.095 300.809 151.423 300.563 150.751 300.157 150.203 299.594 149.779 299.065 149.355 298.291 149.143 297.27 149.143 296.248 149.143 295.421 149.337 294.786 149.726 294.152 150.08 293.66 150.575 293.307 151.211 292.991 151.812 292.779 152.502 292.673 153.279 292.568 154.058 292.515 154.871 292.515 155.719L292.515 168.554 284.591 168.554 284.591 142.778Z" fill="#FFB200" transform="matrix(1 0 0 1.00021 269.711 138.703)"/><path d="M338.171 164.099C336.903 165.726 335.301 166.982 333.363 167.865 331.426 168.75 329.419 169.191 327.342 169.191 325.368 169.191 323.502 168.873 321.742 168.237 320.016 167.6 318.501 166.698 317.198 165.531 315.93 164.329 314.926 162.897 314.187 161.235 313.447 159.574 313.077 157.718 313.077 155.666 313.077 153.616 313.447 151.759 314.187 150.097 314.926 148.435 315.93 147.021 317.198 145.854 318.501 144.652 320.016 143.733 321.742 143.097 323.502 142.46 325.368 142.141 327.342 142.141 329.173 142.141 330.828 142.46 332.307 143.097 333.821 143.733 335.089 144.652 336.111 145.854 337.168 147.021 337.978 148.435 338.541 150.097 339.105 151.759 339.386 153.616 339.386 155.666L339.386 158.159 321.001 158.159C321.319 159.68 322.005 160.9 323.062 161.819 324.118 162.703 325.422 163.144 326.971 163.144 328.274 163.144 329.366 162.862 330.246 162.296 331.163 161.695 331.955 160.935 332.624 160.015L338.171 164.099ZM331.462 152.749C331.497 151.405 331.057 150.256 330.141 149.302 329.226 148.347 328.046 147.87 326.601 147.87 325.721 147.87 324.947 148.011 324.277 148.294 323.608 148.577 323.027 148.948 322.534 149.408 322.076 149.832 321.706 150.345 321.424 150.946 321.178 151.511 321.037 152.112 321.001 152.749L331.462 152.749Z" fill="#FFB200" transform="matrix(1 0 0 1.00021 269.711 138.703)"/><path d="M209.628 107.376 189.987 107.37 189.987 154.051 172.824 107.37 155.811 107.37 141.156 146.405C139.604 136.571 129.416 133.163 121.4 130.614 116.096 128.92 110.497 126.418 110.546 123.654 110.582 121.387 113.558 119.284 119.434 119.602 123.385 119.813 126.872 120.131 133.801 123.474L140.638 111.589C134.299 108.368 125.55 106.336 118.387 106.324L118.339 106.324C109.98 106.324 103.01 109.041 98.6921 113.495 95.6852 116.614 94.0615 120.564 93.9893 124.946 93.881 130.975 96.0942 135.243 100.743 138.657 104.658 141.524 109.673 143.393 114.093 144.77 119.542 146.453 123.999 147.92 123.944 151.052 123.919 152.194 123.481 153.251 122.663 154.111 121.298 155.518 119.217 156.047 116.331 156.101 110.762 156.215 106.636 155.344 100.063 151.46L93.9953 163.512C100.556 167.239 108.32 169.427 116.228 169.427L117.251 169.421C124.149 169.301 129.711 167.323 134.161 163.752 134.408 163.554 134.643 163.344 134.877 163.133L132.91 168.399 150.747 168.399 153.742 159.292C156.875 160.351 160.442 160.952 164.23 160.952 167.91 160.952 171.393 160.387 174.472 159.376L177.359 168.399 206.453 168.399 206.453 149.537 212.798 149.537C228.139 149.537 237.219 141.728 237.219 128.643 237.225 114.066 228.403 107.376 209.628 107.376ZM164.23 147.331C161.94 147.331 159.786 146.922 157.934 146.219L164.164 126.587 164.29 126.587 170.394 146.273C168.56 146.94 166.467 147.331 164.23 147.331ZM210.783 136.042 206.453 136.042 206.453 120.215 210.783 120.215C216.556 120.215 221.15 122.126 221.15 128.036 221.15 134.125 216.556 136.042 210.783 136.042Z" fill="#918F91" fill-rule="evenodd" transform="matrix(1 0 0 1.00021 269.711 138.703)"/><path d="M108.509 196.973C78.9614 195.971 62.9352 183.951 54.4213 159.411 45.9074 134.871 61.9336 106.325 81.9663 97.8104 84.3035 88.1279 94.1862 67.0601 115.02 60.249 141.062 51.7351 158.09 62.7531 163.599 66.7596 172.28 50.0657 200.635 18.5923 245.233 21.1852 288.303 23.6893 313.344 56.9102 319.354 72.2686 329.871 67.2605 354.086 64.4154 370.437 79.2801 386.964 94.3046 387.465 111.333 387.465 122.351 395.979 118.678 416.612 115.039 431.036 129.863 449.065 148.393 442.555 168.927 440.051 174.436 437.547 179.945 427.53 198.475 398.483 196.973" stroke="#918F91" stroke-width="6.00982" fill="none" transform="matrix(1 0 0 1.00021 269.711 138.703)"/><path d="M247.236 107.325 256.108 107.325C260.422 107.325 263.617 108.69 263.617 112.559 263.617 115.487 261.984 116.961 259.806 117.392L259.806 117.452C262.456 117.933 264.264 119.387 264.264 122.595 264.264 126.466 261.028 128.36 256.632 128.36L247.236 128.36 247.236 107.325ZM255.76 116.109C258.614 116.109 260.125 115.256 260.125 113.241 260.125 111.226 258.81 110.453 255.811 110.453L250.821 110.453 250.821 116.109 255.76 116.109ZM256.253 125.292C259.334 125.292 260.679 124.33 260.679 122.225 260.679 119.978 258.933 119.127 255.872 119.127L250.821 119.127 250.821 125.292 256.253 125.292Z" fill="#9A999A" transform="matrix(1 0 0 1.00021 269.711 138.703)"/><path d="M267.269 123.635 267.269 112.333 271.227 112.333 271.227 122.768C271.227 124.513 272.025 125.318 273.746 125.318 275.467 125.318 276.906 124.492 278.335 123.269L278.335 112.333 282.293 112.333 282.293 128.067 278.335 128.067 278.335 125.935C277.255 127.001 275.209 128.36 272.15 128.36 269.181 128.371 267.269 126.74 267.269 123.635Z" fill="#9A999A" transform="matrix(1 0 0 1.00021 269.711 138.703)"/><path d="M283.295 125.913 285.208 123.731C286.346 124.715 288.038 125.564 289.972 125.564 291.855 125.564 293.003 125.073 293.003 123.793 293.003 122.543 291.462 122.165 289.629 121.735 287.031 121.13 283.919 120.424 283.919 116.86 283.919 114.156 286.205 112.333 289.539 112.333 292.419 112.333 294.192 113.174 295.762 114.515L294.08 116.84C292.963 115.907 291.17 115.16 289.8 115.16 287.857 115.16 287.232 115.856 287.232 116.727 287.232 117.977 288.743 118.355 290.546 118.755 293.144 119.338 296.316 120.004 296.316 123.598 296.316 126.855 293.436 128.36 289.982 128.36 287.182 128.35 284.664 127.336 283.295 125.913Z" fill="#9A999A" transform="matrix(1 0 0 1.00021 269.711 138.703)"/><path d="M298.319 106.324 302.326 106.324 302.326 109.405 298.319 109.405 298.319 106.324ZM298.353 113.06 302.304 113.06 302.304 128.36 298.353 128.36 298.353 113.06Z" fill="#9A999A" transform="matrix(1 0 0 1.00021 269.711 138.703)"/><path d="M306.332 112.637 309.763 112.637 309.763 114.768C310.698 113.703 312.472 112.333 315.124 112.333 317.697 112.333 319.354 113.964 319.354 117.077L319.354 128.36 315.923 128.36 315.923 117.997C315.923 116.252 315.231 115.448 313.739 115.448 312.248 115.448 311.001 116.273 309.763 117.495L309.763 128.36 306.332 128.36 306.332 112.637Z" fill="#9A999A" transform="matrix(1 0 0 1.00021 269.711 138.703)"/><path d="M323.36 120.358C323.36 114.486 327.482 112.333 330.657 112.333 334.086 112.333 337.383 114.394 337.383 120.675L337.383 121.515 326.912 121.515C327.054 124.302 328.754 125.522 331.013 125.522 333.007 125.522 334.157 124.856 335.307 123.718L337.18 125.573C335.592 127.346 333.486 128.36 330.748 128.36 326.912 128.371 323.36 126.024 323.36 120.358ZM334.127 118.841C333.923 116.484 332.774 115.234 330.636 115.234 328.906 115.234 327.319 116.218 326.973 118.841L334.127 118.841Z" fill="#9A999A" transform="matrix(1 0 0 1.00021 269.711 138.703)"/><path d="M340.388 125.913 342.154 123.731C343.205 124.715 344.766 125.564 346.551 125.564 348.29 125.564 349.35 125.073 349.35 123.793 349.35 122.543 347.927 122.165 346.236 121.735 343.837 121.13 340.964 120.424 340.964 116.86 340.964 114.156 343.074 112.333 346.151 112.333 348.81 112.333 350.446 113.174 351.897 114.515L350.344 116.84C349.313 115.907 347.658 115.16 346.393 115.16 344.599 115.16 344.023 115.856 344.023 116.727 344.023 117.977 345.417 118.355 347.081 118.755 349.48 119.338 352.408 120.004 352.408 123.598 352.408 126.855 349.749 128.36 346.56 128.36 343.967 128.35 341.652 127.336 340.388 125.913Z" fill="#9A999A" transform="matrix(1 0 0 1.00021 269.711 138.703)"/><path d="M354.411 125.913 356.324 123.731C357.462 124.715 359.155 125.564 361.088 125.564 362.971 125.564 364.119 125.073 364.119 123.793 364.119 122.543 362.578 122.165 360.745 121.735 358.147 121.13 355.035 120.424 355.035 116.86 355.035 114.156 357.322 112.333 360.655 112.333 363.535 112.333 365.308 113.174 366.878 114.515L365.197 116.84C364.079 115.907 362.286 115.16 360.917 115.16 358.973 115.16 358.348 115.856 358.348 116.727 358.348 117.977 359.859 118.355 361.662 118.755 364.26 119.338 367.432 120.004 367.432 123.598 367.432 126.855 364.552 128.36 361.098 128.36 358.298 128.35 355.78 127.336 354.411 125.913Z" fill="#9A999A" transform="matrix(1 0 0 1.00021 269.711 138.703)"/><path d="M124.035 188.894 125.991 188.894 129.958 199.594 129.994 199.594 133.889 188.894 135.881 188.894 135.881 201.484 134.399 201.484 134.399 191.294 134.362 191.294C134.195 191.961 133.889 192.776 133.594 193.61L130.582 201.49 129.238 201.49 126.231 193.604C125.925 192.77 125.721 192.242 125.451 191.24L125.415 191.24 125.415 201.484 124.035 201.484 124.035 188.894Z" fill="#918F91" transform="matrix(1 0 0 1.00021 269.711 138.703)"/><path d="M138.168 199.36C138.168 197.542 139.716 196.245 144.175 195.615L144.175 195.207C144.175 194.084 143.582 193.538 142.477 193.538 141.114 193.538 140.113 194.132 139.224 194.9L138.456 193.983C139.495 193.028 140.839 192.314 142.627 192.314 144.769 192.314 145.622 193.436 145.622 195.309L145.622 199.275C145.622 200.362 145.688 201.028 145.879 201.49L144.38 201.49C144.26 201.118 144.175 200.758 144.175 200.248 143.173 201.184 142.051 201.628 140.707 201.628 139.158 201.622 138.168 200.806 138.168 199.36ZM144.175 199.155 144.175 196.635C140.755 197.181 139.614 198.015 139.614 199.137 139.614 200.008 140.191 200.463 141.127 200.463 142.321 200.463 143.341 199.972 144.175 199.155Z" fill="#918F91" transform="matrix(1 0 0 1.00021 269.711 138.703)"/><path d="M148.124 192.5 149.606 192.5 149.606 193.845C150.387 193.076 151.514 192.314 152.973 192.314 154.69 192.314 155.625 193.299 155.625 195.003L155.625 201.484 154.161 201.484 154.161 195.327C154.161 194.138 153.651 193.574 152.511 193.574 151.436 193.574 150.537 194.138 149.6 195.021L149.6 201.484 148.118 201.484 148.118 192.5 148.124 192.5Z" fill="#918F91" transform="matrix(1 0 0 1.00021 269.711 138.703)"/><path d="M157.581 199.36C157.581 197.542 159.13 196.245 163.589 195.615L163.589 195.207C163.589 194.084 162.995 193.538 161.89 193.538 160.528 193.538 159.526 194.132 158.638 194.9L157.87 193.983C158.908 193.028 160.252 192.314 162.041 192.314 164.183 192.314 165.036 193.436 165.036 195.309L165.036 199.275C165.036 200.362 165.102 201.028 165.293 201.49L163.793 201.49C163.673 201.118 163.589 200.758 163.589 200.248 162.587 201.184 161.465 201.628 160.121 201.628 158.566 201.622 157.581 200.806 157.581 199.36ZM163.589 199.155 163.589 196.635C160.169 197.181 159.028 198.015 159.028 199.137 159.028 200.008 159.604 200.463 160.54 200.463 161.734 200.463 162.755 199.972 163.589 199.155Z" fill="#918F91" transform="matrix(1 0 0 1.00021 269.711 138.703)"/><path d="M166.53 202.708C166.53 201.791 167.16 201.106 168.163 200.716 167.652 200.476 167.394 200.104 167.394 199.576 167.394 199 167.868 198.501 168.516 198.13 167.646 197.566 167.136 196.665 167.136 195.543 167.136 193.652 168.648 192.308 170.791 192.308 171.895 192.308 172.813 192.681 173.443 193.245 173.989 192.836 174.842 192.494 175.568 192.41L175.568 193.7C175.076 193.7 174.482 193.785 173.953 193.989 174.242 194.397 174.416 194.924 174.416 195.537 174.416 197.476 172.885 198.736 170.791 198.736 170.263 198.736 169.818 198.651 169.363 198.513 168.99 198.682 168.733 198.904 168.733 199.209 168.733 199.582 169.02 199.756 169.975 199.839L171.811 199.99C174.091 200.14 175.249 200.872 175.249 202.318 175.249 204.017 173.461 204.923 170.857 204.923 167.838 204.935 166.53 204.07 166.53 202.708ZM173.911 202.469C173.911 201.67 173.317 201.31 171.427 201.173L169.722 201.052C169.555 201.034 169.381 201.016 169.212 201.004 168.342 201.31 167.886 201.875 167.886 202.487 167.886 203.386 168.823 203.831 171.048 203.831 172.843 203.831 173.911 203.285 173.911 202.469ZM173.066 195.579C173.066 194.27 172.249 193.455 170.803 193.455 169.411 193.455 168.54 194.288 168.54 195.579 168.54 196.87 169.441 197.674 170.821 197.674 172.195 197.674 173.066 196.876 173.066 195.579Z" fill="#918F91" transform="matrix(1 0 0 1.00021 269.711 138.703)"/><path d="M176.805 196.99C176.805 193.724 178.983 192.308 180.873 192.308 182.998 192.308 184.619 193.809 184.619 197.055L184.619 197.361 178.269 197.361C178.316 199.384 179.493 200.476 180.976 200.476 182.266 200.476 182.998 199.948 183.682 199.012L184.534 199.762C183.7 200.95 182.559 201.664 180.873 201.664 178.743 201.67 176.805 200.122 176.805 196.99ZM183.22 196.228C183.1 194.625 182.338 193.538 180.855 193.538 179.649 193.538 178.509 194.372 178.305 196.228L183.22 196.228Z" fill="#918F91" transform="matrix(1 0 0 1.00021 269.711 138.703)"/><path d="M190.685 192.5 192.15 192.5 192.15 193.863C193.002 193.01 194.04 192.314 195.384 192.314 196.897 192.314 197.545 192.962 197.851 193.899 198.722 193.046 199.825 192.314 201.17 192.314 203.007 192.314 203.774 193.388 203.774 195.003L203.774 201.484 202.31 201.484 202.31 195.327C202.31 194.138 201.92 193.574 200.744 193.574 199.741 193.574 198.907 194.138 197.971 195.021L197.971 201.484 196.507 201.484 196.507 195.327C196.507 194.138 196.116 193.574 194.94 193.574 193.956 193.574 193.104 194.138 192.15 195.021L192.15 201.484 190.685 201.484 190.685 192.5Z" fill="#918F91" transform="matrix(1 0 0 1.00021 269.711 138.703)"/><path d="M205.112 204.718 205.455 203.542C205.706 203.609 206.151 203.693 206.781 203.693 207.699 203.693 208.143 203.302 208.498 202.415L208.839 201.532 205.37 192.5 206.919 192.5 209.553 199.767 209.589 199.767 212.224 192.5 213.706 192.5 209.86 202.504C209.247 204.088 208.551 204.935 206.799 204.935 205.994 204.935 205.503 204.833 205.112 204.718Z" fill="#918F91" transform="matrix(1 0 0 1.00021 269.711 138.703)"/><path d="M220.794 200.326 220.794 201.484 219.329 201.484 219.329 188.894 220.794 188.894 220.794 193.76C221.472 192.992 222.407 192.314 223.751 192.314 225.811 192.314 227.406 193.845 227.406 196.978 227.406 200.11 225.793 201.622 223.596 201.622 222.497 201.622 221.562 201.125 220.794 200.326ZM225.948 196.989C225.948 194.691 224.862 193.568 223.416 193.568 222.377 193.568 221.544 194.133 220.794 194.948L220.794 199.066C221.574 199.948 222.443 200.428 223.398 200.428 224.964 200.428 225.948 199.372 225.948 196.989Z" fill="#918F91" transform="matrix(1 0 0 1.00021 269.711 138.703)"/><path d="M229.436 198.981 229.436 192.5 230.899 192.5 230.899 198.676C230.899 199.863 231.41 200.427 232.55 200.427 233.637 200.427 234.524 199.863 235.461 198.981L235.461 192.5 236.943 192.5 236.943 201.484 235.461 201.484 235.461 200.14C234.68 200.908 233.558 201.652 232.094 201.652 230.371 201.652 229.436 200.686 229.436 198.981Z" fill="#918F91" transform="matrix(1 0 0 1.00021 269.711 138.703)"/><path d="M238.875 200.122 239.758 199.239C240.436 199.972 241.342 200.481 242.566 200.481 243.964 200.481 244.727 199.99 244.727 199.071 244.727 198.172 243.946 197.829 242.41 197.47 240.502 197.013 239.194 196.497 239.194 194.763 239.194 193.4 240.382 192.314 242.344 192.314 243.928 192.314 244.949 192.824 245.783 193.604L245.015 194.577C244.337 193.947 243.419 193.502 242.41 193.502 241.102 193.502 240.592 194.079 240.592 194.709 240.592 195.542 241.306 195.849 242.716 196.173 244.739 196.665 246.137 197.157 246.137 199.012 246.137 200.728 244.589 201.646 242.548 201.646 240.934 201.652 239.607 201.01 238.875 200.122Z" fill="#918F91" transform="matrix(1 0 0 1.00021 269.711 138.703)"/><path d="M248.304 189.152 249.834 189.152 249.834 190.58 248.304 190.58 248.304 189.152ZM248.334 192.5 249.798 192.5 249.798 201.484 248.334 201.484 248.334 192.5Z" fill="#918F91" transform="matrix(1 0 0 1.00021 269.711 138.703)"/><path d="M252.486 192.5 253.969 192.5 253.969 193.845C254.749 193.076 255.878 192.314 257.335 192.314 259.052 192.314 259.989 193.299 259.989 195.003L259.989 201.484 258.524 201.484 258.524 195.327C258.524 194.138 258.014 193.574 256.874 193.574 255.8 193.574 254.899 194.138 253.963 195.021L253.963 201.484 252.48 201.484 252.48 192.5 252.486 192.5Z" fill="#918F91" transform="matrix(1 0 0 1.00021 269.711 138.703)"/><path d="M261.981 196.99C261.981 193.724 264.159 192.308 266.05 192.308 268.174 192.308 269.795 193.809 269.795 197.055L269.795 197.361 263.445 197.361C263.493 199.384 264.669 200.476 266.152 200.476 267.442 200.476 268.174 199.948 268.858 199.012L269.711 199.762C268.876 200.95 267.736 201.664 266.05 201.664 263.919 201.67 261.981 200.122 261.981 196.99ZM268.396 196.228C268.276 194.625 267.514 193.538 266.031 193.538 264.826 193.538 263.685 194.372 263.481 196.228L268.396 196.228Z" fill="#918F91" transform="matrix(1 0 0 1.00021 269.711 138.703)"/><path d="M271.235 200.122 272.117 199.239C272.796 199.972 273.701 200.481 274.926 200.481 276.324 200.481 277.087 199.99 277.087 199.071 277.087 198.172 276.306 197.829 274.77 197.47 272.862 197.013 271.554 196.497 271.554 194.763 271.554 193.4 272.741 192.314 274.704 192.314 276.288 192.314 277.308 192.824 278.142 193.604L277.374 194.577C276.696 193.947 275.778 193.502 274.77 193.502 273.462 193.502 272.952 194.079 272.952 194.709 272.952 195.542 273.666 195.849 275.076 196.173 277.099 196.665 278.497 197.157 278.497 199.012 278.497 200.728 276.948 201.646 274.908 201.646 273.293 201.652 271.967 201.01 271.235 200.122Z" fill="#918F91" transform="matrix(1 0 0 1.00021 269.711 138.703)"/><path d="M279.942 200.122 280.825 199.239C281.503 199.972 282.409 200.481 283.633 200.481 285.032 200.481 285.794 199.99 285.794 199.071 285.794 198.172 285.014 197.829 283.477 197.47 281.569 197.013 280.261 196.497 280.261 194.763 280.261 193.4 281.449 192.314 283.411 192.314 284.995 192.314 286.016 192.824 286.851 193.604L286.082 194.577C285.404 193.947 284.486 193.502 283.477 193.502 282.169 193.502 281.659 194.079 281.659 194.709 281.659 195.542 282.373 195.849 283.784 196.173 285.806 196.665 287.204 197.157 287.204 199.012 287.204 200.728 285.656 201.646 283.615 201.646 282.001 201.652 280.674 201.01 279.942 200.122Z" fill="#918F91" transform="matrix(1 0 0 1.00021 269.711 138.703)"/><path d="M293.349 189.152 294.88 189.152 294.88 190.58 293.349 190.58 293.349 189.152ZM293.385 192.5 294.85 192.5 294.85 201.484 293.385 201.484 293.385 192.5Z" fill="#918F91" transform="matrix(1 0 0 1.00021 269.711 138.703)"/><path d="M297.532 192.5 299.014 192.5 299.014 193.845C299.795 193.076 300.923 192.314 302.381 192.314 304.098 192.314 305.033 193.299 305.033 195.003L305.033 201.484 303.569 201.484 303.569 195.327C303.569 194.138 303.059 193.574 301.919 193.574 300.844 193.574 299.945 194.138 299.008 195.021L299.008 201.484 297.526 201.484 297.526 192.5 297.532 192.5Z" fill="#918F91" transform="matrix(1 0 0 1.00021 269.711 138.703)"/><path d="M312.164 199.306 312.164 193.706 310.597 193.706 310.597 192.5 312.164 192.5 312.164 189.301 313.628 189.301 313.628 192.5 315.956 192.5 315.956 193.706 313.628 193.706 313.628 198.981C313.628 199.936 313.934 200.409 315.027 200.409 315.35 200.409 315.705 200.362 315.944 200.29L315.944 201.496C315.693 201.544 315.128 201.598 314.666 201.598 312.776 201.604 312.164 200.872 312.164 199.306Z" fill="#918F91" transform="matrix(1 0 0 1.00021 269.711 138.703)"/><path d="M317.93 188.894 319.413 188.894 319.413 193.845C320.193 193.076 321.321 192.314 322.779 192.314 324.496 192.314 325.433 193.299 325.433 195.003L325.433 201.484 323.968 201.484 323.968 195.327C323.968 194.139 323.457 193.574 322.317 193.574 321.244 193.574 320.343 194.139 319.407 195.021L319.407 201.484 317.924 201.484 317.924 188.894 317.93 188.894Z" fill="#918F91" transform="matrix(1 0 0 1.00021 269.711 138.703)"/><path d="M327.425 196.99C327.425 193.724 329.603 192.308 331.493 192.308 333.618 192.308 335.239 193.809 335.239 197.055L335.239 197.361 328.889 197.361C328.937 199.384 330.113 200.476 331.596 200.476 332.886 200.476 333.618 199.948 334.302 199.012L335.154 199.762C334.32 200.95 333.179 201.664 331.493 201.664 329.363 201.67 327.425 200.122 327.425 196.99ZM333.834 196.228C333.714 194.625 332.952 193.538 331.469 193.538 330.263 193.538 329.123 194.372 328.919 196.228L333.834 196.228Z" fill="#918F91" transform="matrix(1 0 0 1.00021 269.711 138.703)"/><path d="M340.796 196.99C340.796 193.706 342.908 192.308 344.912 192.308 346.936 192.308 347.889 193.496 348.435 194.829L347.193 195.339C346.749 194.18 346.053 193.55 344.876 193.55 343.586 193.55 342.272 194.451 342.272 196.99 342.272 199.203 343.329 200.446 344.841 200.446 345.981 200.446 346.677 199.954 347.259 198.645L348.465 199.119C347.769 200.62 346.731 201.67 344.793 201.67 342.717 201.67 340.796 200.074 340.796 196.99Z" fill="#918F91" transform="matrix(1 0 0 1.00021 269.711 138.703)"/><path d="M350.524 188.894 351.988 188.894 351.988 201.484 350.524 201.484 350.524 188.894Z" fill="#918F91" transform="matrix(1 0 0 1.00021 269.711 138.703)"/><path d="M354.167 196.99C354.167 193.893 356.141 192.308 358.349 192.308 360.546 192.308 362.52 193.893 362.52 196.99 362.52 200.068 360.546 201.67 358.349 201.67 356.153 201.67 354.167 200.074 354.167 196.99ZM361.038 196.99C361.038 195.117 360.137 193.568 358.349 193.568 356.633 193.568 355.643 194.966 355.643 196.99 355.643 198.898 356.525 200.428 358.349 200.428 360.054 200.428 361.038 199.054 361.038 196.99Z" fill="#918F91" transform="matrix(1 0 0 1.00021 269.711 138.703)"/><path d="M364.506 198.981 364.506 192.5 365.971 192.5 365.971 198.676C365.971 199.863 366.481 200.427 367.621 200.427 368.707 200.427 369.596 199.863 370.532 198.981L370.532 192.5 372.014 192.5 372.014 201.484 370.532 201.484 370.532 200.14C369.752 200.908 368.629 201.652 367.165 201.652 365.443 201.652 364.506 200.686 364.506 198.981Z" fill="#918F91" transform="matrix(1 0 0 1.00021 269.711 138.703)"/><path d="M374.103 197.007C374.103 193.875 375.736 192.308 377.932 192.308 379.018 192.308 380.045 192.854 380.723 193.634L380.723 188.894 382.187 188.894 382.187 199.269C382.187 200.356 382.253 201.022 382.457 201.484L380.927 201.484C380.825 201.197 380.723 200.668 380.723 200.206 380.009 200.986 379.108 201.616 377.764 201.616 375.7 201.622 374.103 200.14 374.103 197.007ZM380.723 199.036 380.723 194.918C379.943 194.037 379.09 193.556 378.136 193.556 376.57 193.556 375.567 194.661 375.567 197.025 375.567 199.324 376.672 200.41 378.119 200.41 379.156 200.41 379.973 199.851 380.723 199.036Z" fill="#918F91" transform="matrix(1 0 0 1.00021 269.711 138.703)"/><path d="M346.398 144.887C346.398 146.27 345.277 147.391 343.894 147.391 342.511 147.391 341.39 146.27 341.39 144.887 341.39 143.504 342.511 142.383 343.894 142.383 345.277 142.383 346.398 143.504 346.398 144.887Z" stroke="#FFB200" stroke-width="0.500818" fill="none" transform="matrix(1 0 0 1.00021 269.711 138.703)"/><path d="M342.892 143.384 343.853 143.384C344.49 143.384 344.859 143.673 344.859 144.286 344.859 144.765 344.638 145.036 344.265 145.138L344.895 146.388 344.41 146.388 343.809 145.203 343.338 145.203 343.338 146.389 342.892 146.389 342.892 143.384ZM343.835 144.761C344.211 144.761 344.415 144.655 344.415 144.299 344.415 143.953 344.215 143.847 343.832 143.847L343.338 143.847 343.338 144.761 343.835 144.761Z" fill="#FFB200" transform="matrix(1 0 0 1.00021 269.711 138.703)"/></g></svg>